<svg xmlns="http://www.w3.org/2000/svg" viewBox="0 0 1536 1024" role="img" width="1536" height="1024">
  <title>FDIC-insured bank failures surge in 2009 – retro pixel art banner</title>
  <defs>
    <radialGradient id="crt" cx="50%" cy="50%" r="70%">
      <stop offset="0%" stop-color="#1a0a2e" />
      <stop offset="100%" stop-color="#050008" />
    </radialGradient>
    <filter id="glow">
      <feGaussianBlur stdDeviation="3" result="blur" />
      <feMerge><feMergeNode in="blur" /><feMergeNode in="SourceGraphic" /></feMerge>
    </filter>
    <filter id="scanlines" x="0" y="0" width="100%" height="100%">
      <feTurbulence type="fractalNoise" baseFrequency="0 0.5" numOctaves="1" result="noise" />
      <feColorMatrix type="saturate" values="0" in="noise" result="gray" />
      <feBlend in="SourceGraphic" in2="gray" mode="multiply" />
    </filter>
  </defs>

  
  <rect width="1536" height="1024" fill="url(#crt)" />

  
  <rect width="1536" height="1024" fill="none" stroke="#000" stroke-width="0" opacity="0.3" />
  
  <rect x="0" y="0" width="1536" height="2" fill="#000" opacity="0.25" />
  <rect x="0" y="4" width="1536" height="2" fill="#000" opacity="0.25" />
  <rect x="0" y="8" width="1536" height="2" fill="#000" opacity="0.25" />
  <rect x="0" y="12" width="1536" height="2" fill="#000" opacity="0.25" />
  <rect x="0" y="16" width="1536" height="2" fill="#000" opacity="0.25" />
  <rect x="0" y="20" width="1536" height="2" fill="#000" opacity="0.25" />
  <rect x="0" y="24" width="1536" height="2" fill="#000" opacity="0.25" />
  <rect x="0" y="28" width="1536" height="2" fill="#000" opacity="0.25" />
  <rect x="0" y="32" width="1536" height="2" fill="#000" opacity="0.25" />
  <rect x="0" y="36" width="1536" height="2" fill="#000" opacity="0.25" />
  <rect x="0" y="40" width="1536" height="2" fill="#000" opacity="0.25" />
  <rect x="0" y="44" width="1536" height="2" fill="#000" opacity="0.25" />
  <rect x="0" y="48" width="1536" height="2" fill="#000" opacity="0.25" />
  <rect x="0" y="52" width="1536" height="2" fill="#000" opacity="0.25" />
  <rect x="0" y="56" width="1536" height="2" fill="#000" opacity="0.25" />
  <rect x="0" y="60" width="1536" height="2" fill="#000" opacity="0.25" />
  <rect x="0" y="64" width="1536" height="2" fill="#000" opacity="0.25" />
  <rect x="0" y="68" width="1536" height="2" fill="#000" opacity="0.25" />
  <rect x="0" y="72" width="1536" height="2" fill="#000" opacity="0.25" />
  <rect x="0" y="76" width="1536" height="2" fill="#000" opacity="0.25" />
  <rect x="0" y="80" width="1536" height="2" fill="#000" opacity="0.25" />
  <rect x="0" y="84" width="1536" height="2" fill="#000" opacity="0.25" />
  <rect x="0" y="88" width="1536" height="2" fill="#000" opacity="0.25" />
  <rect x="0" y="92" width="1536" height="2" fill="#000" opacity="0.25" />
  <rect x="0" y="96" width="1536" height="2" fill="#000" opacity="0.25" />
  <rect x="0" y="100" width="1536" height="2" fill="#000" opacity="0.25" />
  <rect x="0" y="104" width="1536" height="2" fill="#000" opacity="0.25" />
  <rect x="0" y="108" width="1536" height="2" fill="#000" opacity="0.25" />
  <rect x="0" y="112" width="1536" height="2" fill="#000" opacity="0.25" />
  <rect x="0" y="116" width="1536" height="2" fill="#000" opacity="0.25" />
  <rect x="0" y="120" width="1536" height="2" fill="#000" opacity="0.25" />
  <rect x="0" y="124" width="1536" height="2" fill="#000" opacity="0.25" />
  <rect x="0" y="128" width="1536" height="2" fill="#000" opacity="0.25" />
  <rect x="0" y="132" width="1536" height="2" fill="#000" opacity="0.25" />
  <rect x="0" y="136" width="1536" height="2" fill="#000" opacity="0.25" />
  <rect x="0" y="140" width="1536" height="2" fill="#000" opacity="0.25" />
  <rect x="0" y="144" width="1536" height="2" fill="#000" opacity="0.25" />
  <rect x="0" y="148" width="1536" height="2" fill="#000" opacity="0.25" />
  <rect x="0" y="152" width="1536" height="2" fill="#000" opacity="0.25" />
  <rect x="0" y="156" width="1536" height="2" fill="#000" opacity="0.25" />
  <rect x="0" y="160" width="1536" height="2" fill="#000" opacity="0.25" />
  <rect x="0" y="164" width="1536" height="2" fill="#000" opacity="0.25" />
  <rect x="0" y="168" width="1536" height="2" fill="#000" opacity="0.25" />
  <rect x="0" y="172" width="1536" height="2" fill="#000" opacity="0.25" />
  <rect x="0" y="176" width="1536" height="2" fill="#000" opacity="0.25" />
  <rect x="0" y="180" width="1536" height="2" fill="#000" opacity="0.25" />
  <rect x="0" y="184" width="1536" height="2" fill="#000" opacity="0.25" />
  <rect x="0" y="188" width="1536" height="2" fill="#000" opacity="0.25" />
  <rect x="0" y="192" width="1536" height="2" fill="#000" opacity="0.25" />
  <rect x="0" y="196" width="1536" height="2" fill="#000" opacity="0.25" />
  <rect x="0" y="200" width="1536" height="2" fill="#000" opacity="0.25" />
  <rect x="0" y="204" width="1536" height="2" fill="#000" opacity="0.25" />
  <rect x="0" y="208" width="1536" height="2" fill="#000" opacity="0.25" />
  <rect x="0" y="212" width="1536" height="2" fill="#000" opacity="0.25" />
  <rect x="0" y="216" width="1536" height="2" fill="#000" opacity="0.25" />
  <rect x="0" y="220" width="1536" height="2" fill="#000" opacity="0.25" />
  <rect x="0" y="224" width="1536" height="2" fill="#000" opacity="0.25" />
  <rect x="0" y="228" width="1536" height="2" fill="#000" opacity="0.25" />
  <rect x="0" y="232" width="1536" height="2" fill="#000" opacity="0.25" />
  <rect x="0" y="236" width="1536" height="2" fill="#000" opacity="0.25" />
  <rect x="0" y="240" width="1536" height="2" fill="#000" opacity="0.25" />
  <rect x="0" y="244" width="1536" height="2" fill="#000" opacity="0.25" />
  <rect x="0" y="248" width="1536" height="2" fill="#000" opacity="0.25" />
  <rect x="0" y="252" width="1536" height="2" fill="#000" opacity="0.25" />
  <rect x="0" y="256" width="1536" height="2" fill="#000" opacity="0.25" />
  <rect x="0" y="260" width="1536" height="2" fill="#000" opacity="0.25" />
  <rect x="0" y="264" width="1536" height="2" fill="#000" opacity="0.25" />
  <rect x="0" y="268" width="1536" height="2" fill="#000" opacity="0.25" />
  <rect x="0" y="272" width="1536" height="2" fill="#000" opacity="0.25" />
  <rect x="0" y="276" width="1536" height="2" fill="#000" opacity="0.25" />
  <rect x="0" y="280" width="1536" height="2" fill="#000" opacity="0.25" />
  <rect x="0" y="284" width="1536" height="2" fill="#000" opacity="0.25" />
  <rect x="0" y="288" width="1536" height="2" fill="#000" opacity="0.25" />
  <rect x="0" y="292" width="1536" height="2" fill="#000" opacity="0.25" />
  <rect x="0" y="296" width="1536" height="2" fill="#000" opacity="0.25" />
  <rect x="0" y="300" width="1536" height="2" fill="#000" opacity="0.25" />
  <rect x="0" y="304" width="1536" height="2" fill="#000" opacity="0.25" />
  <rect x="0" y="308" width="1536" height="2" fill="#000" opacity="0.25" />
  <rect x="0" y="312" width="1536" height="2" fill="#000" opacity="0.25" />
  <rect x="0" y="316" width="1536" height="2" fill="#000" opacity="0.25" />
  <rect x="0" y="320" width="1536" height="2" fill="#000" opacity="0.25" />
  <rect x="0" y="324" width="1536" height="2" fill="#000" opacity="0.25" />
  <rect x="0" y="328" width="1536" height="2" fill="#000" opacity="0.25" />
  <rect x="0" y="332" width="1536" height="2" fill="#000" opacity="0.25" />
  <rect x="0" y="336" width="1536" height="2" fill="#000" opacity="0.25" />
  <rect x="0" y="340" width="1536" height="2" fill="#000" opacity="0.25" />
  <rect x="0" y="344" width="1536" height="2" fill="#000" opacity="0.25" />
  <rect x="0" y="348" width="1536" height="2" fill="#000" opacity="0.25" />
  <rect x="0" y="352" width="1536" height="2" fill="#000" opacity="0.25" />
  <rect x="0" y="356" width="1536" height="2" fill="#000" opacity="0.25" />
  <rect x="0" y="360" width="1536" height="2" fill="#000" opacity="0.25" />
  <rect x="0" y="364" width="1536" height="2" fill="#000" opacity="0.25" />
  <rect x="0" y="368" width="1536" height="2" fill="#000" opacity="0.25" />
  <rect x="0" y="372" width="1536" height="2" fill="#000" opacity="0.25" />
  <rect x="0" y="376" width="1536" height="2" fill="#000" opacity="0.25" />
  <rect x="0" y="380" width="1536" height="2" fill="#000" opacity="0.25" />
  <rect x="0" y="384" width="1536" height="2" fill="#000" opacity="0.25" />
  <rect x="0" y="388" width="1536" height="2" fill="#000" opacity="0.25" />
  <rect x="0" y="392" width="1536" height="2" fill="#000" opacity="0.25" />
  <rect x="0" y="396" width="1536" height="2" fill="#000" opacity="0.25" />
  <rect x="0" y="400" width="1536" height="2" fill="#000" opacity="0.25" />
  <rect x="0" y="404" width="1536" height="2" fill="#000" opacity="0.25" />
  <rect x="0" y="408" width="1536" height="2" fill="#000" opacity="0.25" />
  <rect x="0" y="412" width="1536" height="2" fill="#000" opacity="0.25" />
  <rect x="0" y="416" width="1536" height="2" fill="#000" opacity="0.25" />
  <rect x="0" y="420" width="1536" height="2" fill="#000" opacity="0.25" />
  <rect x="0" y="424" width="1536" height="2" fill="#000" opacity="0.25" />
  <rect x="0" y="428" width="1536" height="2" fill="#000" opacity="0.25" />
  <rect x="0" y="432" width="1536" height="2" fill="#000" opacity="0.25" />
  <rect x="0" y="436" width="1536" height="2" fill="#000" opacity="0.25" />
  <rect x="0" y="440" width="1536" height="2" fill="#000" opacity="0.25" />
  <rect x="0" y="444" width="1536" height="2" fill="#000" opacity="0.25" />
  <rect x="0" y="448" width="1536" height="2" fill="#000" opacity="0.25" />
  <rect x="0" y="452" width="1536" height="2" fill="#000" opacity="0.25" />
  <rect x="0" y="456" width="1536" height="2" fill="#000" opacity="0.25" />
  <rect x="0" y="460" width="1536" height="2" fill="#000" opacity="0.25" />
  <rect x="0" y="464" width="1536" height="2" fill="#000" opacity="0.25" />
  <rect x="0" y="468" width="1536" height="2" fill="#000" opacity="0.25" />
  <rect x="0" y="472" width="1536" height="2" fill="#000" opacity="0.25" />
  <rect x="0" y="476" width="1536" height="2" fill="#000" opacity="0.25" />
  <rect x="0" y="480" width="1536" height="2" fill="#000" opacity="0.25" />
  <rect x="0" y="484" width="1536" height="2" fill="#000" opacity="0.25" />
  <rect x="0" y="488" width="1536" height="2" fill="#000" opacity="0.25" />
  <rect x="0" y="492" width="1536" height="2" fill="#000" opacity="0.25" />
  <rect x="0" y="496" width="1536" height="2" fill="#000" opacity="0.25" />
  <rect x="0" y="500" width="1536" height="2" fill="#000" opacity="0.25" />
  <rect x="0" y="504" width="1536" height="2" fill="#000" opacity="0.25" />
  <rect x="0" y="508" width="1536" height="2" fill="#000" opacity="0.25" />
  <rect x="0" y="512" width="1536" height="2" fill="#000" opacity="0.25" />
  <rect x="0" y="516" width="1536" height="2" fill="#000" opacity="0.25" />
  <rect x="0" y="520" width="1536" height="2" fill="#000" opacity="0.25" />
  <rect x="0" y="524" width="1536" height="2" fill="#000" opacity="0.25" />
  <rect x="0" y="528" width="1536" height="2" fill="#000" opacity="0.25" />
  <rect x="0" y="532" width="1536" height="2" fill="#000" opacity="0.25" />
  <rect x="0" y="536" width="1536" height="2" fill="#000" opacity="0.25" />
  <rect x="0" y="540" width="1536" height="2" fill="#000" opacity="0.25" />
  <rect x="0" y="544" width="1536" height="2" fill="#000" opacity="0.25" />
  <rect x="0" y="548" width="1536" height="2" fill="#000" opacity="0.25" />
  <rect x="0" y="552" width="1536" height="2" fill="#000" opacity="0.25" />
  <rect x="0" y="556" width="1536" height="2" fill="#000" opacity="0.25" />
  <rect x="0" y="560" width="1536" height="2" fill="#000" opacity="0.25" />
  <rect x="0" y="564" width="1536" height="2" fill="#000" opacity="0.25" />
  <rect x="0" y="568" width="1536" height="2" fill="#000" opacity="0.25" />
  <rect x="0" y="572" width="1536" height="2" fill="#000" opacity="0.25" />
  <rect x="0" y="576" width="1536" height="2" fill="#000" opacity="0.25" />
  <rect x="0" y="580" width="1536" height="2" fill="#000" opacity="0.25" />
  <rect x="0" y="584" width="1536" height="2" fill="#000" opacity="0.25" />
  <rect x="0" y="588" width="1536" height="2" fill="#000" opacity="0.25" />
  <rect x="0" y="592" width="1536" height="2" fill="#000" opacity="0.25" />
  <rect x="0" y="596" width="1536" height="2" fill="#000" opacity="0.25" />
  <rect x="0" y="600" width="1536" height="2" fill="#000" opacity="0.25" />
  <rect x="0" y="604" width="1536" height="2" fill="#000" opacity="0.25" />
  <rect x="0" y="608" width="1536" height="2" fill="#000" opacity="0.25" />
  <rect x="0" y="612" width="1536" height="2" fill="#000" opacity="0.25" />
  <rect x="0" y="616" width="1536" height="2" fill="#000" opacity="0.25" />
  <rect x="0" y="620" width="1536" height="2" fill="#000" opacity="0.25" />
  <rect x="0" y="624" width="1536" height="2" fill="#000" opacity="0.25" />
  <rect x="0" y="628" width="1536" height="2" fill="#000" opacity="0.25" />
  <rect x="0" y="632" width="1536" height="2" fill="#000" opacity="0.25" />
  <rect x="0" y="636" width="1536" height="2" fill="#000" opacity="0.25" />
  <rect x="0" y="640" width="1536" height="2" fill="#000" opacity="0.25" />
  <rect x="0" y="644" width="1536" height="2" fill="#000" opacity="0.25" />
  <rect x="0" y="648" width="1536" height="2" fill="#000" opacity="0.25" />
  <rect x="0" y="652" width="1536" height="2" fill="#000" opacity="0.25" />
  <rect x="0" y="656" width="1536" height="2" fill="#000" opacity="0.25" />
  <rect x="0" y="660" width="1536" height="2" fill="#000" opacity="0.25" />
  <rect x="0" y="664" width="1536" height="2" fill="#000" opacity="0.25" />
  <rect x="0" y="668" width="1536" height="2" fill="#000" opacity="0.25" />
  <rect x="0" y="672" width="1536" height="2" fill="#000" opacity="0.25" />
  <rect x="0" y="676" width="1536" height="2" fill="#000" opacity="0.25" />
  <rect x="0" y="680" width="1536" height="2" fill="#000" opacity="0.25" />
  <rect x="0" y="684" width="1536" height="2" fill="#000" opacity="0.25" />
  <rect x="0" y="688" width="1536" height="2" fill="#000" opacity="0.25" />
  <rect x="0" y="692" width="1536" height="2" fill="#000" opacity="0.25" />
  <rect x="0" y="696" width="1536" height="2" fill="#000" opacity="0.25" />
  <rect x="0" y="700" width="1536" height="2" fill="#000" opacity="0.25" />
  <rect x="0" y="704" width="1536" height="2" fill="#000" opacity="0.25" />
  <rect x="0" y="708" width="1536" height="2" fill="#000" opacity="0.25" />
  <rect x="0" y="712" width="1536" height="2" fill="#000" opacity="0.25" />
  <rect x="0" y="716" width="1536" height="2" fill="#000" opacity="0.25" />
  <rect x="0" y="720" width="1536" height="2" fill="#000" opacity="0.25" />
  <rect x="0" y="724" width="1536" height="2" fill="#000" opacity="0.25" />
  <rect x="0" y="728" width="1536" height="2" fill="#000" opacity="0.25" />
  <rect x="0" y="732" width="1536" height="2" fill="#000" opacity="0.25" />
  <rect x="0" y="736" width="1536" height="2" fill="#000" opacity="0.25" />
  <rect x="0" y="740" width="1536" height="2" fill="#000" opacity="0.25" />
  <rect x="0" y="744" width="1536" height="2" fill="#000" opacity="0.25" />
  <rect x="0" y="748" width="1536" height="2" fill="#000" opacity="0.25" />
  <rect x="0" y="752" width="1536" height="2" fill="#000" opacity="0.25" />
  <rect x="0" y="756" width="1536" height="2" fill="#000" opacity="0.25" />
  <rect x="0" y="760" width="1536" height="2" fill="#000" opacity="0.25" />
  <rect x="0" y="764" width="1536" height="2" fill="#000" opacity="0.25" />
  <rect x="0" y="768" width="1536" height="2" fill="#000" opacity="0.25" />
  <rect x="0" y="772" width="1536" height="2" fill="#000" opacity="0.25" />
  <rect x="0" y="776" width="1536" height="2" fill="#000" opacity="0.25" />
  <rect x="0" y="780" width="1536" height="2" fill="#000" opacity="0.25" />
  <rect x="0" y="784" width="1536" height="2" fill="#000" opacity="0.25" />
  <rect x="0" y="788" width="1536" height="2" fill="#000" opacity="0.25" />
  <rect x="0" y="792" width="1536" height="2" fill="#000" opacity="0.25" />
  <rect x="0" y="796" width="1536" height="2" fill="#000" opacity="0.25" />
  <rect x="0" y="800" width="1536" height="2" fill="#000" opacity="0.25" />
  <rect x="0" y="804" width="1536" height="2" fill="#000" opacity="0.25" />
  <rect x="0" y="808" width="1536" height="2" fill="#000" opacity="0.25" />
  <rect x="0" y="812" width="1536" height="2" fill="#000" opacity="0.25" />
  <rect x="0" y="816" width="1536" height="2" fill="#000" opacity="0.25" />
  <rect x="0" y="820" width="1536" height="2" fill="#000" opacity="0.25" />
  <rect x="0" y="824" width="1536" height="2" fill="#000" opacity="0.25" />
  <rect x="0" y="828" width="1536" height="2" fill="#000" opacity="0.25" />
  <rect x="0" y="832" width="1536" height="2" fill="#000" opacity="0.25" />
  <rect x="0" y="836" width="1536" height="2" fill="#000" opacity="0.25" />
  <rect x="0" y="840" width="1536" height="2" fill="#000" opacity="0.25" />
  <rect x="0" y="844" width="1536" height="2" fill="#000" opacity="0.25" />
  <rect x="0" y="848" width="1536" height="2" fill="#000" opacity="0.25" />
  <rect x="0" y="852" width="1536" height="2" fill="#000" opacity="0.25" />
  <rect x="0" y="856" width="1536" height="2" fill="#000" opacity="0.25" />
  <rect x="0" y="860" width="1536" height="2" fill="#000" opacity="0.25" />
  <rect x="0" y="864" width="1536" height="2" fill="#000" opacity="0.25" />
  <rect x="0" y="868" width="1536" height="2" fill="#000" opacity="0.25" />
  <rect x="0" y="872" width="1536" height="2" fill="#000" opacity="0.25" />
  <rect x="0" y="876" width="1536" height="2" fill="#000" opacity="0.25" />
  <rect x="0" y="880" width="1536" height="2" fill="#000" opacity="0.25" />
  <rect x="0" y="884" width="1536" height="2" fill="#000" opacity="0.25" />
  <rect x="0" y="888" width="1536" height="2" fill="#000" opacity="0.25" />
  <rect x="0" y="892" width="1536" height="2" fill="#000" opacity="0.25" />
  <rect x="0" y="896" width="1536" height="2" fill="#000" opacity="0.25" />
  <rect x="0" y="900" width="1536" height="2" fill="#000" opacity="0.25" />
  <rect x="0" y="904" width="1536" height="2" fill="#000" opacity="0.25" />
  <rect x="0" y="908" width="1536" height="2" fill="#000" opacity="0.25" />
  <rect x="0" y="912" width="1536" height="2" fill="#000" opacity="0.25" />
  <rect x="0" y="916" width="1536" height="2" fill="#000" opacity="0.25" />
  <rect x="0" y="920" width="1536" height="2" fill="#000" opacity="0.25" />
  <rect x="0" y="924" width="1536" height="2" fill="#000" opacity="0.25" />
  <rect x="0" y="928" width="1536" height="2" fill="#000" opacity="0.25" />
  <rect x="0" y="932" width="1536" height="2" fill="#000" opacity="0.25" />
  <rect x="0" y="936" width="1536" height="2" fill="#000" opacity="0.25" />
  <rect x="0" y="940" width="1536" height="2" fill="#000" opacity="0.25" />
  <rect x="0" y="944" width="1536" height="2" fill="#000" opacity="0.25" />
  <rect x="0" y="948" width="1536" height="2" fill="#000" opacity="0.25" />
  <rect x="0" y="952" width="1536" height="2" fill="#000" opacity="0.25" />
  <rect x="0" y="956" width="1536" height="2" fill="#000" opacity="0.25" />
  <rect x="0" y="960" width="1536" height="2" fill="#000" opacity="0.25" />
  <rect x="0" y="964" width="1536" height="2" fill="#000" opacity="0.25" />
  <rect x="0" y="968" width="1536" height="2" fill="#000" opacity="0.25" />
  <rect x="0" y="972" width="1536" height="2" fill="#000" opacity="0.25" />
  <rect x="0" y="976" width="1536" height="2" fill="#000" opacity="0.25" />
  <rect x="0" y="980" width="1536" height="2" fill="#000" opacity="0.25" />
  <rect x="0" y="984" width="1536" height="2" fill="#000" opacity="0.25" />
  <rect x="0" y="988" width="1536" height="2" fill="#000" opacity="0.25" />
  <rect x="0" y="992" width="1536" height="2" fill="#000" opacity="0.25" />
  <rect x="0" y="996" width="1536" height="2" fill="#000" opacity="0.25" />
  <rect x="0" y="1000" width="1536" height="2" fill="#000" opacity="0.25" />
  <rect x="0" y="1004" width="1536" height="2" fill="#000" opacity="0.25" />
  <rect x="0" y="1008" width="1536" height="2" fill="#000" opacity="0.25" />
  <rect x="0" y="1012" width="1536" height="2" fill="#000" opacity="0.25" />
  <rect x="0" y="1016" width="1536" height="2" fill="#000" opacity="0.25" />
  <rect x="0" y="1020" width="1536" height="2" fill="#000" opacity="0.25" />

  
  
  <rect x="80" y="380" width="400" height="520" fill="#2a1f6e" />
  
  <rect x="100" y="400" width="48" height="480" fill="#3a2f8e" />
  <rect x="180" y="400" width="48" height="480" fill="#3a2f8e" />
  <rect x="260" y="400" width="48" height="480" fill="#3a2f8e" />
  <rect x="340" y="400" width="48" height="480" fill="#3a2f8e" />
  <rect x="420" y="400" width="40" height="480" fill="#3a2f8e" />

  
  <polygon points="60,380 540,380 500,320 100,320" fill="#3a2f8e" />
  <polygon points="80,320 480,320 460,280 100,280" fill="#4a3fae" />
  
  <rect x="100" y="280" width="360" height="8" fill="#6a5fce" />

  
  <rect x="160" y="340" width="240" height="50" fill="#1a0a4e" />
  <text x="280" y="376" font-family="monospace" font-size="32" font-weight="bold" fill="#00ff88" text-anchor="middle" filter="url(#glow)">FDIC</text>

  
  <rect x="220" y="740" width="120" height="160" fill="#1a0a4e" />
  <rect x="230" y="750" width="100" height="140" fill="#0a0020" />
  
  <rect x="235" y="760" width="40" height="60" fill="#0d0030" />
  <rect x="285" y="760" width="40" height="60" fill="#0d0030" />
  <rect x="270" y="790" width="20" height="8" fill="#ffcc00" />

  
  <rect x="104" y="440" width="40" height="48" fill="#ff3300" opacity="0.9" />
  <rect x="184" y="440" width="40" height="48" fill="#ff3300" opacity="0.9" />
  <rect x="264" y="440" width="40" height="48" fill="#ff6600" opacity="0.9" />
  <rect x="344" y="440" width="40" height="48" fill="#ff3300" opacity="0.9" />
  <rect x="104" y="520" width="40" height="48" fill="#ff6600" opacity="0.7" />
  <rect x="184" y="520" width="40" height="48" fill="#ffcc00" opacity="0.6" />
  <rect x="264" y="520" width="40" height="48" fill="#ff3300" opacity="0.9" />
  <rect x="344" y="520" width="40" height="48" fill="#ff6600" opacity="0.7" />
  <rect x="104" y="600" width="40" height="48" fill="#ffcc00" opacity="0.5" />
  <rect x="184" y="600" width="40" height="48" fill="#ff3300" opacity="0.8" />
  <rect x="264" y="600" width="40" height="48" fill="#ff6600" opacity="0.7" />
  <rect x="344" y="600" width="40" height="48" fill="#ff3300" opacity="0.9" />

  
  <rect x="60" y="540" width="24" height="24" fill="#2a1f6e" opacity="0.9" />
  <rect x="44" y="580" width="16" height="16" fill="#3a2f8e" opacity="0.8" />
  <rect x="520" y="600" width="24" height="24" fill="#2a1f6e" opacity="0.9" />
  <rect x="540" y="650" width="16" height="16" fill="#3a2f8e" opacity="0.7" />
  <rect x="500" y="700" width="20" height="20" fill="#2a1f6e" opacity="0.8" />
  
  <rect x="285" y="400" width="8" height="80" fill="#ff3300" opacity="0.6" />
  <rect x="277" y="450" width="8" height="40" fill="#ff3300" opacity="0.5" />
  <rect x="285" y="480" width="24" height="8" fill="#ff3300" opacity="0.6" />

  
  <rect x="100" y="640" width="360" height="8" fill="#ff0044" />
  <rect x="100" y="680" width="360" height="8" fill="#ff0044" />
  <rect x="100" y="720" width="360" height="8" fill="#ff0044" />

  
  
  <rect x="720" y="200" width="760" height="720" fill="#0d0820" rx="0" />
  <rect x="720" y="200" width="760" height="4" fill="#00ff88" />
  <rect x="720" y="916" width="760" height="4" fill="#00ff88" />
  <rect x="720" y="200" width="4" height="720" fill="#00ff88" />
  <rect x="1476" y="200" width="4" height="720" fill="#00ff88" />

  
  <text x="1100" y="252" font-family="monospace" font-size="24" fill="#00ff88" text-anchor="middle" filter="url(#glow)">BANK FAILURES PER YEAR</text>

  
  <text x="760" y="890" font-family="monospace" font-size="18" fill="#00ff88" text-anchor="middle">0</text>
  <text x="760" y="760" font-family="monospace" font-size="18" fill="#00ff88" text-anchor="middle">50</text>
  <text x="760" y="630" font-family="monospace" font-size="18" fill="#00ff88" text-anchor="middle">100</text>
  <text x="760" y="500" font-family="monospace" font-size="18" fill="#00ff88" text-anchor="middle">150</text>

  
  <rect x="786" y="872" width="680" height="2" fill="#1a3a1a" />
  <rect x="786" y="742" width="680" height="2" fill="#1a3a1a" />
  <rect x="786" y="612" width="680" height="2" fill="#1a3a1a" />
  <rect x="786" y="482" width="680" height="2" fill="#1a3a1a" />

  
  
  <rect x="800" y="868" width="80" height="8" fill="#00cc66" />
  <text x="840" y="905" font-family="monospace" font-size="16" fill="#00ff88" text-anchor="middle">'05</text>

  
  <rect x="910" y="864" width="80" height="12" fill="#00cc66" />
  <text x="950" y="905" font-family="monospace" font-size="16" fill="#00ff88" text-anchor="middle">'06</text>

  
  <rect x="1020" y="850" width="80" height="26" fill="#00cc66" />
  <text x="1060" y="905" font-family="monospace" font-size="16" fill="#00ff88" text-anchor="middle">'07</text>

  
  <rect x="1130" y="806" width="80" height="70" fill="#ffcc00" />
  <text x="1170" y="905" font-family="monospace" font-size="16" fill="#00ff88" text-anchor="middle">'08</text>

  
  <rect x="1240" y="506" width="80" height="370" fill="#ff2200" />
  
  <rect x="1240" y="506" width="80" height="8" fill="#ff8844" />
  <rect x="1244" y="510" width="72" height="4" fill="#ffbb88" opacity="0.6" />
  <text x="1280" y="905" font-family="monospace" font-size="16" fill="#ff4400" text-anchor="middle" filter="url(#glow)">'09</text>
  
  <text x="1280" y="496" font-family="monospace" font-size="22" fill="#ff4400" text-anchor="middle" font-weight="bold" filter="url(#glow)">140</text>

  
  <rect x="1350" y="474" width="80" height="402" fill="#ff0044" />
  <rect x="1350" y="474" width="80" height="8" fill="#ff88aa" />
  <text x="1390" y="905" font-family="monospace" font-size="16" fill="#ff0044" text-anchor="middle" filter="url(#glow)">'10</text>
  <text x="1390" y="464" font-family="monospace" font-size="22" fill="#ff0044" text-anchor="middle" font-weight="bold" filter="url(#glow)">157</text>

  
  <rect x="786" y="270" width="4" height="604" fill="#00ff88" />

  
  
  <text x="68" y="138" font-family="monospace" font-size="72" font-weight="bold" fill="#ff0044" letter-spacing="2">FDIC-INSURED BANK</text>
  <text x="68" y="222" font-family="monospace" font-size="72" font-weight="bold" fill="#ff0044" letter-spacing="2">FAILURES SURGE IN 2009</text>
  
  <text x="64" y="134" font-family="monospace" font-size="72" font-weight="bold" fill="#ff4466" letter-spacing="2" filter="url(#glow)">FDIC-INSURED BANK</text>
  <text x="64" y="218" font-family="monospace" font-size="72" font-weight="bold" fill="#ff4466" letter-spacing="2" filter="url(#glow)">FAILURES SURGE IN 2009</text>

  
  <text x="64" y="278" font-family="monospace" font-size="28" fill="#00ff88" filter="url(#glow)">140 BANKS COLLAPSED — HIGHEST SINCE 1992</text>

  
  <text x="590" y="480" font-family="monospace" font-size="40" fill="#ffcc00" opacity="0.7" filter="url(#glow)">$</text>
  <text x="620" y="560" font-family="monospace" font-size="28" fill="#ffcc00" opacity="0.5">$</text>
  <text x="570" y="640" font-family="monospace" font-size="48" fill="#ffcc00" opacity="0.6" filter="url(#glow)">$</text>
  <text x="635" y="720" font-family="monospace" font-size="32" fill="#ff6600" opacity="0.6">$</text>
  <text x="600" y="800" font-family="monospace" font-size="36" fill="#ff3300" opacity="0.7" filter="url(#glow)">$</text>

  
  <rect x="64" y="940" width="24" height="24" fill="#ff0044" />
  <rect x="96" y="940" width="24" height="24" fill="#000" />
  <rect x="128" y="940" width="24" height="24" fill="#ff0044" />
  <rect x="160" y="940" width="24" height="24" fill="#000" />
  <text x="200" y="960" font-family="monospace" font-size="20" fill="#ff4444" filter="url(#glow)">COLONIAL BANK · GUARANTY BANK · BANKUNITED FSB</text>

  
  <radialGradient id="vignette" cx="50%" cy="50%" r="75%">
    <stop offset="60%" stop-color="transparent" />
    <stop offset="100%" stop-color="#000" stop-opacity="0.7" />
  </radialGradient>
  <rect width="1536" height="1024" fill="url(#vignette)" />
</svg>